<!--?xml version="1.0" encoding="utf-8"?-->
<!-- Generator: Adobe Illustrator 18.1.1, SVG Export Plug-In . SVG Version: 6.00 Build 0)  -->

<svg version="1.1" id="_x31_0" xmlns="http://www.w3.org/2000/svg" xmlns:xlink="http://www.w3.org/1999/xlink" x="0px" y="0px" viewBox="0 0 512 512" style="width: 256px; height: 256px; opacity: 1;" xml:space="preserve">
<style type="text/css">
	.st0{fill:#374149;}
</style>
<g>
	<path class="st0" d="M177.427,294.384c-0.051-0.043-0.11-0.09-0.16-0.129l0,0c-0.043-0.035-0.086-0.07-0.125-0.102
		c-4.043,4.972-8.187,10.155-12.542,15.546L47.688,427.236l-0.199,0.195l-0.726-0.722c-9.636-9.64-25.388-9.64-35.028,0
		l-6.117,6.113c-7.46,7.464-7.46,19.69,0,27.154l4.664,4.66l37.102,37.106l4.668,4.664c7.456,7.46,19.69,7.46,27.154,0l6.113-6.113
		c9.636-9.64,9.636-25.392,0-34.926l-0.73-0.828l117.74-117.115c6.406-5.109,12.53-10.022,18.436-14.8
		c0.653-0.507,1.34-1.058,1.984-1.558l-0.027-0.019c0.043-0.035,0.086-0.07,0.129-0.102
		C206.272,317.659,191.437,305.817,177.427,294.384z"></path>
	<path class="st0" d="M340.788,235.283c34.407-29.334,68.713-61.046,119.392-111.721l35.029-34.93
		c21.252-21.35,22.49-54.617,2.594-74.514C478.011-5.681,444.635-4.54,423.39,16.81l-34.926,34.927
		c-47.054,47.054-77.732,79.907-105.402,111.928c16.272,19.592,32.747,40.317,52.441,64.982
		C337.265,230.831,339.026,233.007,340.788,235.283z"></path>
	<path class="st0" d="M506.379,432.841l-6.128-6.132c-9.609-9.613-25.342-9.613-34.954,0l-0.726,0.734L347.377,309.699l-0.004-0.008
		c-94.801-117.545-116.99-151.132-223.766-257.919L88.61,16.775C67.331-4.505,34.009-5.681,14.175,14.147
		C-5.655,33.98-4.475,67.31,16.796,88.589l35.002,34.997c106.772,106.788,140.351,128.978,257.888,223.794h0.008l117.072,116.557
		l0.652,0.648l-0.726,0.73c-9.617,9.617-9.617,25.342,0,34.958l6.128,6.128c7.465,7.464,19.674,7.464,27.138,0l4.687-4.679
		l37.055-37.055l4.679-4.687C513.844,452.515,513.844,440.305,506.379,432.841z"></path>
</g>
</svg>
